<?xml version="1.0" encoding="utf-8"?>
<!-- Generator: Adobe Illustrator 26.0.3, SVG Export Plug-In . SVG Version: 6.00 Build 0)  -->
<svg version="1.1" id="Layer_1" xmlns="http://www.w3.org/2000/svg" xmlns:xlink="http://www.w3.org/1999/xlink" x="0px" y="0px"
	 viewBox="0 0 1000 1000" style="enable-background:new 0 0 1000 1000;" xml:space="preserve">
<g>
	<g>
		<path d="M393.2,332.7c-12.3-7.2-22.6-17.5-30.2-29.5c-7.5-12-12.5-25.7-14.3-39.8c-1.8-14.1-0.4-28.6,4.6-41.9
			c5-13.3,13.6-24.9,24.4-34.1c10.7-9.2,23.6-16,37.3-19.6c13.6-3.7,28.2-4.2,41.9-1c13.9,3.3,26.5,10.5,36.9,20.3
			c10.3,9.8,18.3,22,23.2,35.3c4.9,13.2,6.8,27.6,4.6,41.6c-2.7,17.7-11.8,33.5-20.7,48.8c-2.3,3.9-4.5,7.8-6.7,11.7
			c0.4-0.2,0.9-0.5,1.3-0.7c-1.3,0.1-2.5,0.1-3.8,0.2c-1.9,0.1-1.9,3.1,0,3c1.2-0.1,2.5,0,3.8-0.2c1.3-0.2,1.7-1.4,2.3-2.5
			c1.2-2.1,2.3-4.1,3.5-6.2c2.4-4.2,4.8-8.3,7.2-12.5c4.6-8.3,9-16.8,12.2-25.9c5.1-14.7,6.1-30.2,2.9-45.5
			c-3-14.5-9.7-28.2-18.9-39.8c-9.2-11.6-21.1-21-34.8-26.7c-13.6-5.7-28.7-7.4-43.3-5.5c-14.6,1.9-28.7,7.3-41,15.4
			c-12.3,8.1-22.8,19-30,31.9c-7.2,13-10.6,27.7-10.5,42.5c0.1,14.8,3.7,29.6,10.2,42.9c6.4,13.3,15.8,25.1,27.5,34.1
			c2.9,2.2,5.9,4.2,9.1,6.1C393.3,336.3,394.8,333.7,393.2,332.7L393.2,332.7z"/>
	</g>
</g>
<g>
	<g>
		<path d="M491.5,325.3c1.9,0,1.9-3,0-3C489.6,322.3,489.6,325.3,491.5,325.3L491.5,325.3z"/>
	</g>
</g>
<g>
	<g>
		<path d="M487.1,329c18.7,17.8,37.2,35.9,54.5,55.1c17.1,19.1,33,39.4,45.8,61.7c12.5,21.9,21.8,45.8,25.6,70.8
			c2,12.8,3.2,28.6-5.8,39.2c-3.7,4.4-9.1,7.9-14.9,8.6c-6.2,0.8-11.7-1.9-15.8-6.5c-4.4-4.9-7.3-11.1-10.4-16.9
			c-3.8-7-7.6-14.1-11.4-21.1c-7.5-13.9-15.1-27.9-22.6-41.8c-1.9-3.5-3.8-7-5.7-10.6c-0.8-1.4-2.7-0.6-2.8,0.8
			c-3.7,37.3-4.8,74.8-3.4,112.3c1.4,37.1,5.3,74.2,11.6,110.8c1.6,9.1,3.3,18.3,5.2,27.3c1.9,9.2,3.8,18.5,4.1,27.9
			c0.5,15.3-4.4,31.7-18.3,39.8c-6,3.6-13.1,4.6-19.8,2.5c-6.2-2-11.3-6.4-15.3-11.5c-9.4-12-13.7-27.6-17.8-42
			c-9.9-35-14.3-71.4-13-107.7c0.2-4.5,0.4-9,0.8-13.5c0-0.7-0.5-1.3-1.1-1.4c-6.7-2-13.6,1.5-17.6,6.9c-4.9,6.5-5.3,15.1-5.6,22.9
			c-0.6,19.9-1.2,39.8-1.8,59.8c-0.3,9.5-0.4,19-1,28.4c-0.5,8.7-1.4,17.5-3.9,25.9c-4.4,14.5-15.3,27.9-31.2,30.2
			c-6.9,1-14-0.8-19.4-5.4c-4.8-4.1-7.7-9.8-9.4-15.8c-3.9-13.9-2-28.5-0.5-42.6c4.2-39.7,7.3-79.4,9.3-119.2
			c2-39.8,3-79.7,2.9-119.6c0-4.9,0-9.8-0.1-14.7c0-1.9-3-1.9-3,0c0.4,40.5-0.4,81-2.2,121.4c-1.8,40.4-4.8,80.8-8.8,121.1
			c-1.5,15.4-4.2,31.2-2.1,46.7c1.7,12.4,7.3,24.7,19.7,29.5c13.3,5.2,28.3-1.7,37.3-11.7c11.2-12.5,13.5-30.3,14.4-46.4
			c1-19.8,1.3-39.6,1.9-59.4c0.3-10,0.5-20,0.9-30c0.3-8.3,1.3-18.2,8.8-23.3c3.1-2.2,6.8-3.1,10.5-2c-0.4-0.5-0.7-1-1.1-1.4
			c-2.8,37.4,0.4,75.1,9.5,111.5c2.3,9.2,4.9,18.2,8,27.2c2.2,6.6,4.9,13.2,8.4,19.3c6.5,11.2,17,21.6,30.9,20.9
			c14-0.7,25-12.4,29.6-24.8c6.4-17.1,1.6-36.1-1.9-53.3c-7.8-38.2-12.8-77-15.1-115.9c-2.3-38.8-1.9-77.7,1.2-116.4
			c0.4-4.8,0.8-9.6,1.3-14.3c-0.9,0.3-1.9,0.5-2.8,0.8c8,14.8,16,29.5,23.9,44.3c4,7.3,7.9,14.6,11.9,21.9
			c3.5,6.5,6.8,13.3,10.8,19.5c3.2,5,7.3,9.6,13,11.7c5.2,1.9,11,1.3,16-1c12.2-5.5,17.3-18.2,17.9-30.9c0.6-13.4-2.4-27.3-6-40.1
			c-3.5-12.4-8.2-24.5-13.8-36c-11.7-23.9-27.4-45.7-44.6-66c-17.6-20.7-36.9-39.9-56.4-58.7c-2.4-2.3-4.8-4.6-7.2-6.9
			C487.9,325.5,485.7,327.7,487.1,329L487.1,329z"/>
	</g>
</g>
<g>
	<g>
		<path d="M377,469c0.4-7,0.2-15.3-4.3-21c-2.2-2.8-5.5-4.6-9-4.8c-4.1-0.2-8,1.7-10.9,4.4c-7.4,6.9-7.1,17.4-6.2,26.7
			c1,9.9,1.3,19.6,0.4,29.5c-1.7,19.3-7.4,38.3-16.5,55.4c-4.4,8.3-9.5,16.4-16.5,22.8c-6.2,5.6-14.7,10.5-23.3,8.1
			c-15-4.2-15.5-23.3-13.6-35.9c0.7-4.3,1.7-8.5,2.8-12.8c1.3-5.1,2.7-10.2,4.1-15.3c3-10.3,6.3-20.5,9.9-30.6
			c7.2-20.1,15.4-39.9,23.9-59.5c4.3-9.9,8.7-19.7,13.1-29.5c3.4-7.5,6.9-15.1,10.9-22.3c7.5-13.5,17.1-27.1,31-34.7
			c3.3-1.8,6.7-3.1,10.3-4c4.2-1.1,8.7-0.9,12.9-2.1c3.9-1.1,7.3-3.9,7.7-8.2c0.4-3.7-2.4-6.8-6.2-5.9c-2.9,0.7-5.5,3.7-3.6,6.6
			c1,1.6,3.6,0.1,2.6-1.5c-0.6-1,0.5-1.7,1.3-2.1c1.3-0.5,2.5,0,2.9,1.4c0.4,1.7-0.5,3.6-1.7,4.8c-1.5,1.5-3.8,2.1-5.8,2.5
			c-4.1,0.7-8.1,0.9-12.1,2c-3.6,1-7,2.5-10.3,4.3c-13.4,7.5-23,20.5-30.4,33.6c-4,6.9-7.4,14.1-10.7,21.4
			c-4.3,9.5-8.6,19.1-12.8,28.6c-8.4,19.1-16.5,38.4-23.7,58.1c-7.1,19.4-13.6,39.2-17.9,59.3c-1.5,7-2.3,14.4-1.6,21.6
			c0.7,6.6,2.7,13.4,7.7,18.2c5.7,5.4,14,6.9,21.4,4.4c8.3-2.8,15.2-9.2,20.5-16c5.7-7.3,10.3-15.7,14.1-24.1c4-8.7,7.1-17.7,9.3-27
			c2.2-9.3,3.5-18.8,3.9-28.3c0.2-4.7,0.2-9.5-0.1-14.2c-0.3-5-1-9.9-1.2-14.9c-0.2-4.7,0.1-9.8,2.4-14c1.9-3.5,5.1-6.5,9-7.5
			c3.4-0.9,7,0.2,9.4,2.8c2.2,2.5,3.2,5.9,3.8,9.1c0.6,3.5,0.6,7.1,0.4,10.6C373.9,471,376.9,471,377,469L377,469z"/>
	</g>
</g>
<g>
	<g>
		<path d="M403.2,208.1c8.1-4.9,17.5-10.6,27.4-9.4c7.4,0.9,15.1,6,15.3,14.2c0.1,4.2-1.8,8-3.9,11.5c-2.4,3.8-5.2,7.4-7.6,11.2
			c-5.1,8-6.9,17.3-6.5,26.7c0.4,11.1,3.5,21.8,6.6,32.4c0.6,1.8,3.5,1.1,2.9-0.8c-2.9-9.7-5.8-19.7-6.4-29.9
			c-0.3-4.9-0.1-9.9,1-14.7c1.1-4.7,3-9.1,5.7-13.2c4.7-7.1,11.8-14.6,11.3-23.7c-0.5-8.6-7.7-14.5-15.7-16.2
			c-11.3-2.4-22.1,3.8-31.5,9.4C400,206.5,401.5,209.1,403.2,208.1L403.2,208.1z"/>
	</g>
</g>
<g>
	<g>
		<path d="M429.6,311.5c5.2-3.7,14.3-0.1,14.2,6.7c0,3.6-2.5,7-5.8,8.5c-3.2,1.5-6.7,0.6-9.1-2c-2.5-2.7-3.6-6.9-1.9-10.2
			c0.9-1.7-1.7-3.2-2.6-1.5c-4.2,8.3,3.5,19.5,13,17.1c4.5-1.2,8.3-5.2,9.2-9.8c0.9-4.6-1.2-8.9-5-11.3c-4-2.6-9.5-2.9-13.5-0.1
			c-0.7,0.5-1,1.3-0.5,2.1C427.9,311.7,428.9,312,429.6,311.5L429.6,311.5z"/>
	</g>
</g>
</svg>
